 <svg  version="1.0" xmlns="http://www.w3.org/2000/svg"  width="300.000000pt" height="160.000000pt" viewBox="0 0 300.000000 160.000000"  preserveAspectRatio="xMidYMid meet">  <g transform="translate(0.000000,160.000000) scale(0.100000,-0.100000)" fill="#ffffff" stroke="none"> <path d="M793 1333 l-181 -188 90 -3 90 -3 89 88 c71 70 89 94 89 116 0 39 22 30 36 -14 12 -36 88 -119 110 -119 7 0 37 -28 68 -61 45 -50 57 -59 62 -45 6 15 16 9 59 -34 47 -46 58 -52 104 -56 42 -4 51 -2 51 11 0 14 -8 15 -46 9 -46 -7 -46 -6 -105 52 -53 52 -59 63 -59 99 0 36 -6 48 -47 88 -26 26 -51 47 -57 47 -5 0 -18 8 -29 18 -20 16 -20 16 -14 -1 4 -10 3 -17 -2 -15 -21 7 -131 112 -131 125 0 24 18 13 69 -43 29 -31 55 -53 59 -50 3 4 0 11 -8 16 -8 6 -10 10 -4 10 6 0 19 -9 29 -20 10 -11 25 -20 34 -20 9 0 42 -26 74 -58 50 -50 57 -63 59 -100 1 -33 5 -42 19 -42 10 0 33 -18 52 -40 28 -33 36 -38 46 -26 9 11 5 18 -24 35 -57 33 -46 45 36 37 56 -5 78 -12 102 -32 27 -23 37 -25 114 -23 46 1 86 -1 90 -5 13 -12 33 -6 33 12 0 16 -10 17 -102 14 -99 -4 -104 -3 -133 22 -25 22 -40 26 -115 29 -78 3 -77 3 19 3 72 0 106 4 109 12 2 7 -2 12 -10 13 -40 2 -157 -3 -185 -8 -21 -3 -33 -1 -33 6 0 7 26 11 74 11 48 0 77 4 84 13 8 10 27 11 69 6 57 -6 81 0 69 19 -9 14 -127 2 -147 -14 -18 -16 -149 -20 -149 -5 0 21 -114 131 -135 131 -15 0 -51 30 -106 86 l-84 85 -182 -188z m242 107 c27 -27 47 -50 44 -50 -6 0 -99 90 -99 96 0 9 7 2 55 -46z m-171 -179 c-65 -63 -84 -76 -121 -81 -24 -4 -42 -3 -41 1 2 4 55 61 118 126 l115 118 3 -45 c3 -43 2 -45 -74 -119z m157 110 c17 -22 43 -46 58 -53 15 -7 51 -40 81 -73 30 -33 60 -61 67 -63 14 -4 19 -52 5 -52 -4 0 -30 23 -57 50 -27 28 -54 50 -59 50 -19 0 -86 74 -86 95 0 12 -13 31 -30 43 -16 13 -30 27 -30 32 0 20 20 9 51 -29z m174 -111 c27 -27 43 -50 35 -50 -15 0 -100 78 -100 92 0 17 18 6 65 -42z"/> <path d="M865 1150 l-130 -130 50 0 c50 0 52 1 130 80 l80 80 80 -80 c80 -79 81 -80 133 -80 l52 0 -84 83 c-47 45 -106 103 -133 129 l-48 48 -130 -130z m235 -16 c0 -3 -9 0 -20 6 -11 6 -20 18 -20 27 0 9 -3 13 -7 10 -3 -4 -17 0 -30 8 -22 15 -27 14 -58 -5 -46 -28 -45 -11 1 30 l37 32 48 -52 c27 -28 49 -53 49 -56z m-215 -24 c-21 -22 -43 -40 -48 -40 -5 0 8 18 29 40 22 22 43 40 49 40 5 0 -9 -18 -30 -40z m269 -39 c-6 -6 -53 43 -48 51 3 4 16 -4 29 -20 13 -15 22 -29 19 -31z"/> <path d="M443 963 c-72 -76 -135 -142 -139 -146 -4 -4 57 -73 136 -152 l145 -145 87 0 c49 0 88 3 88 6 0 3 -62 69 -138 146 l-139 141 76 77 c42 43 105 107 141 144 l64 66 -95 0 -95 0 -131 -137z m111 -26 l-122 -123 125 -127 126 -127 -45 0 c-43 0 -46 2 -168 125 l-124 126 86 87 c48 48 101 104 120 124 29 33 39 38 78 38 l45 0 -121 -123z"/> <path d="M1510 994 c0 -3 18 -28 39 -56 l39 -52 -44 -58 -45 -58 46 0 c41 0 48 3 63 30 9 16 19 30 22 30 3 0 14 -13 23 -30 16 -26 24 -30 63 -30 l45 0 -41 55 c-22 30 -40 57 -40 61 0 4 16 29 35 55 19 27 35 51 35 54 0 3 -18 5 -39 5 -34 0 -43 -5 -58 -30 -9 -16 -20 -30 -23 -30 -3 0 -13 14 -22 30 -15 26 -23 30 -58 30 -22 0 -40 -3 -40 -6z m146 -108 c0 -27 -3 -33 -20 -32 -14 1 -22 10 -27 34 -6 30 -5 32 20 32 23 0 26 -4 27 -34z"/> <path d="M1780 885 l0 -115 35 0 35 0 0 115 0 115 -35 0 -35 0 0 -115z"/> <path d="M1890 886 l0 -116 38 0 37 0 -3 54 c-3 42 -7 53 -18 49 -10 -4 -14 4 -14 30 0 20 4 38 9 42 12 7 34 -31 28 -48 -2 -7 7 -33 22 -59 35 -64 59 -64 92 0 l24 47 3 -57 3 -58 34 0 35 0 0 115 0 115 -35 0 c-32 0 -37 -5 -72 -64 l-37 -65 -35 62 c-33 57 -40 62 -74 65 l-37 3 0 -115z m250 24 c0 -38 -1 -39 -20 -28 -24 16 -25 26 -3 50 22 25 23 24 23 -22z"/> <path d="M683 913 c-23 -4 -29 -19 -15 -39 4 -6 27 -11 51 -10 27 1 46 -4 48 -11 3 -9 -6 -13 -26 -13 -36 0 -83 -17 -93 -33 -14 -21 -8 -64 10 -79 28 -25 55 -29 87 -12 19 10 31 11 33 5 2 -6 17 -11 33 -11 l29 0 0 80 c0 73 -3 83 -25 105 -24 25 -67 31 -132 18z m118 -120 c-6 -12 -10 -10 -15 11 -4 15 -3 32 0 38 11 17 26 -31 15 -49z m-37 -21 c-14 -22 -48 -22 -52 1 -2 11 5 20 20 26 30 11 47 -3 32 -27z"/> <path d="M929 905 c-55 -30 -63 -125 -16 -173 17 -16 35 -23 64 -24 62 -1 78 8 81 43 2 27 0 30 -15 24 -10 -4 -30 -10 -45 -13 -23 -3 -29 1 -38 23 -12 31 -4 71 16 79 8 3 26 1 39 -4 23 -9 27 -7 36 17 7 20 6 28 -3 35 -20 12 -90 9 -119 -7z"/> <path d="M1100 815 l0 -105 35 0 35 0 0 69 c0 76 16 105 45 81 11 -9 15 -32 15 -81 l0 -69 35 0 35 0 0 63 c0 74 18 110 44 88 12 -10 16 -31 16 -82 l0 -69 35 0 35 0 0 89 c0 82 -2 91 -22 105 -28 20 -68 20 -93 2 -17 -12 -22 -12 -39 0 -26 18 -66 18 -93 -1 -19 -13 -22 -13 -27 0 -3 8 -17 15 -31 15 l-25 0 0 -105z m180 38 c0 -21 -19 -24 -29 -4 -17 32 -14 43 9 29 11 -7 20 -18 20 -25z"/> <path d="M1489 704 c-11 -14 -9 -19 11 -35 24 -19 25 -20 3 -17 -12 2 -22 -1 -23 -7 0 -5 12 -10 28 -10 20 0 28 5 30 23 2 15 -2 22 -12 22 -9 0 -16 5 -16 10 0 6 9 10 21 10 11 0 17 5 14 10 -9 15 -41 12 -56 -6z"/> <path d="M1730 706 c0 -8 -7 -13 -16 -12 -21 1 -39 -27 -31 -48 6 -16 57 -23 57 -8 0 4 4 24 9 45 7 29 6 37 -5 37 -8 0 -14 -6 -14 -14z m-2 -38 c-6 -18 -28 -21 -28 -4 0 9 7 16 16 16 9 0 14 -5 12 -12z"/> <path d="M2007 702 c-21 -23 -22 -46 -2 -62 17 -14 47 -10 52 7 3 7 -3 10 -15 6 -11 -2 -23 0 -27 7 -9 14 13 41 31 38 7 -2 14 2 16 7 6 18 -38 16 -55 -3z"/> <path d="M2083 708 c0 -7 -3 -28 -7 -45 -9 -39 9 -46 18 -8 8 33 30 33 23 0 -3 -16 0 -24 7 -22 6 2 11 17 11 33 0 23 -4 28 -19 26 -14 -3 -17 1 -13 12 4 10 1 16 -7 16 -7 0 -13 -6 -13 -12z"/> <path d="M1558 698 c-8 -22 5 -68 18 -68 10 0 13 7 8 25 -4 15 -2 25 5 25 6 0 8 7 5 15 -7 18 -31 20 -36 3z"/> <path d="M1914 696 c-10 -27 1 -61 21 -65 17 -3 18 -1 5 14 -12 15 -12 19 3 29 12 10 14 15 5 24 -16 16 -27 15 -34 -2z"/> <path d="M2314 696 c-10 -26 1 -61 19 -64 16 -3 17 -1 5 17 -11 18 -11 23 1 30 7 5 10 14 7 20 -10 15 -26 14 -32 -3z"/> <path d="M1608 677 c-7 -34 1 -47 28 -47 17 0 25 7 30 25 10 39 -2 53 -17 20 l-13 -30 -4 28 c-4 33 -18 36 -24 4z"/> <path d="M1771 686 c-18 -22 -9 -50 17 -54 26 -4 30 14 5 21 -13 3 -12 5 5 6 17 1 22 6 20 18 -4 23 -31 28 -47 9z"/> <path d="M1836 675 c-8 -30 -7 -45 3 -45 5 0 11 10 13 22 2 12 9 23 16 26 9 3 11 -3 6 -22 -3 -15 -2 -26 4 -26 12 0 26 50 17 59 -15 15 -54 6 -59 -14z"/> <path d="M2160 684 c-18 -20 -2 -54 25 -54 23 0 35 17 35 48 0 21 -45 26 -60 6z m38 -16 c-6 -18 -28 -21 -28 -4 0 9 7 16 16 16 9 0 14 -5 12 -12z"/> <path d="M2232 658 c-11 -42 -8 -63 6 -41 4 6 16 12 26 14 29 6 43 34 27 53 -25 30 -48 19 -59 -26z m48 7 c0 -8 -7 -15 -15 -15 -16 0 -20 12 -8 23 11 12 23 8 23 -8z"/> <path d="M2372 691 c-22 -13 -11 -56 16 -59 26 -4 30 14 5 21 -13 3 -11 5 6 6 17 1 21 5 17 17 -3 9 -6 18 -6 20 0 7 -24 4 -38 -5z"/> <path d="M2436 688 c-13 -43 -13 -58 0 -58 8 0 14 9 14 20 0 11 7 23 15 26 8 4 15 10 15 15 0 14 -40 11 -44 -3z"/> <path d="M860 475 l134 -135 132 128 c72 70 132 130 133 135 0 4 -20 7 -46 7 -46 0 -50 -2 -130 -82 l-83 -83 -83 83 -82 82 -55 0 -55 0 135 -135z m45 17 c61 -64 102 -76 138 -41 34 35 57 52 57 45 0 -11 -92 -106 -103 -106 -10 0 -177 167 -177 177 0 9 31 -19 85 -75z m240 38 c-10 -11 -23 -20 -28 -20 -6 0 -2 9 8 20 10 11 23 20 28 20 6 0 2 -9 -8 -20z"/> <path d="M1405 603 c-32 -3 -50 -14 -92 -56 -37 -35 -53 -46 -53 -34 0 9 -7 17 -15 17 -8 0 -15 -6 -15 -13 0 -15 -91 -107 -106 -107 -18 0 -104 -95 -104 -116 0 -20 -17 -44 -31 -44 -4 0 -5 8 -3 18 3 12 -26 47 -93 114 l-98 97 -93 3 c-50 2 -92 1 -92 -2 0 -3 85 -90 189 -194 l189 -189 82 87 c58 60 88 85 99 81 12 -3 37 15 79 59 34 35 62 69 62 75 0 7 25 11 66 11 52 0 69 -4 82 -19 11 -12 36 -21 68 -24 55 -6 66 -3 58 18 -4 10 -20 12 -60 8 -39 -4 -54 -2 -54 7 0 9 10 10 36 6 31 -6 35 -5 32 11 -3 10 -10 16 -19 13 -32 -10 -209 -11 -209 -1 0 7 34 11 93 11 81 0 97 3 118 21 22 19 34 20 124 17 84 -2 100 -1 100 12 0 13 -17 14 -105 12 -95 -3 -107 -6 -131 -28 -22 -21 -34 -24 -109 -24 l-83 0 34 33 c19 18 42 36 52 40 19 7 22 22 7 32 -16 10 -119 -106 -120 -135 0 -33 -97 -140 -126 -140 -14 0 -49 -29 -98 -81 -42 -44 -76 -77 -76 -72 0 5 29 38 65 73 36 35 65 69 65 74 0 6 -29 -18 -65 -54 -35 -35 -68 -61 -72 -57 -4 4 22 37 57 72 46 47 67 62 76 54 8 -7 14 -7 19 1 3 6 11 8 16 5 5 -3 31 15 59 41 46 43 50 50 50 94 0 44 3 50 60 104 50 48 63 56 85 50 45 -11 59 -9 63 9 2 10 -2 16 -10 15 -7 -1 -31 -3 -53 -5z m-155 -137 c0 -14 -6 -26 -13 -28 -16 -4 -107 -105 -107 -118 0 -6 -8 -10 -18 -10 -10 0 -40 -22 -67 -50 -53 -54 -74 -60 -31 -10 14 17 26 39 26 48 0 18 78 102 95 102 6 0 31 20 55 45 50 51 60 55 60 21z m-385 -106 c76 -75 84 -87 87 -126 2 -24 1 -44 -2 -44 -8 0 -250 245 -250 252 0 4 19 5 41 3 37 -2 51 -12 124 -85z m385 42 c0 -14 -88 -94 -99 -91 -14 5 66 99 85 99 8 0 14 -4 14 -8z"/> </g> </svg> 